<?xml version="1.0" encoding="UTF-8"?>
<svg id="Layer_2" data-name="Layer 2" xmlns="http://www.w3.org/2000/svg" viewBox="0 0 329.08 266.44">
  <defs>
    <style>
      .cls-1 {
        fill: #fff;
      }
    </style>
  </defs>
  <g id="Layer_1-2" data-name="Layer 1">
    <g>
      <g>
        <path class="cls-1" d="M221.84,45.85c-7.57,0-14.55,2.48-20.2,6.66l-7.14,7.15-47.86,47.88-4.16,4.16c-8.67,9.26-21.01,15.04-34.7,15.04-26.27,0-47.56-21.29-47.56-47.55s21.29-47.56,47.56-47.56c8.53,0,16.54,2.25,23.46,6.18l22.24-22.24C140.4,5.79,124.15,0,106.56,0,63.18,0,28.01,35.16,28.01,78.54s35.17,78.54,78.54,78.54c16.22,0,31.29-4.91,43.81-13.34,5.15-3.47,9.86-7.53,14.04-12.08,0,0,0,0,0,0l30.75-30.75,47.75-47.74c-5.79-4.58-13.11-7.31-21.07-7.31Z"/>
        <path class="cls-1" d="M106.36,111.83c7.57,0,14.55-2.48,20.2-6.66l7.14-7.15,47.86-47.88,4.16-4.16c8.67-9.26,21.01-15.04,34.7-15.04,26.27,0,47.56,21.29,47.56,47.55s-21.29,47.56-47.56,47.56c-8.53,0-16.54-2.25-23.46-6.18l-22.24,22.24c13.09,9.77,29.33,15.56,46.93,15.56,43.38,0,78.54-35.16,78.54-78.54S265.02.6,221.65.6c-16.22,0-31.29,4.91-43.81,13.34-5.15,3.47-9.86,7.53-14.04,12.08,0,0,0,0,0,0l-30.75,30.75-47.75,47.74c5.79,4.58,13.11,7.31,21.07,7.31Z"/>
      </g>
      <g>
        <polygon class="cls-1" points="0 265.93 9.52 265.93 9.52 246.23 34.28 246.23 34.28 238.32 9.52 238.32 9.52 222.72 37.43 222.72 37.43 214.66 0 214.66 0 265.93"/>
        <path class="cls-1" d="M50.39,209.39c-1.71,0-3.11.54-4.21,1.61-1.1,1.07-1.65,2.34-1.65,3.81,0,1.56.55,2.88,1.65,3.96,1.1,1.07,2.5,1.61,4.21,1.61s3.17-.55,4.25-1.65c1.07-1.1,1.61-2.43,1.61-3.99s-.55-2.84-1.65-3.85c-1.1-1-2.5-1.5-4.21-1.5Z"/>
        <rect class="cls-1" x="45.85" y="226.82" width="9.08" height="39.11"/>
        <path class="cls-1" d="M97.52,228.14c-2.42-1.22-5.21-1.83-8.39-1.83-3.42,0-6.43.68-9.05,2.05-1.74.91-3.19,2.08-4.36,3.49v-5.03h-8.72v39.11h9.08v-19.78c0-2.64.45-4.82,1.35-6.56.9-1.73,2.19-3.04,3.85-3.92,1.66-.88,3.56-1.32,5.71-1.32,2.98,0,5.27.85,6.88,2.56,1.61,1.71,2.42,4.3,2.42,7.76v21.24h9.16v-22.41c0-3.96-.72-7.2-2.16-9.74-1.44-2.54-3.37-4.42-5.79-5.64Z"/>
        <path class="cls-1" d="M132.06,226.31c-3.13,0-6.13.42-9.01,1.25-2.88.83-5.4,2.05-7.54,3.66l3.59,6.67c1.51-1.22,3.32-2.17,5.42-2.86,2.1-.68,4.22-1.03,6.37-1.03,3.32,0,5.8.74,7.43,2.23,1.64,1.49,2.45,3.58,2.45,6.26v.59h-10.18c-3.96,0-7.13.51-9.52,1.54-2.39,1.03-4.11,2.42-5.16,4.18-1.05,1.76-1.57,3.74-1.57,5.93s.6,4.26,1.79,6.04c1.2,1.78,2.89,3.17,5.09,4.17,2.2,1,4.76,1.5,7.69,1.5,3.52,0,6.4-.63,8.64-1.9,1.55-.87,2.76-2,3.66-3.36v4.75h8.64v-22.93c0-5.66-1.54-9.86-4.61-12.6-3.08-2.73-7.47-4.1-13.18-4.1ZM136.86,258.24c-1.78,1.03-3.8,1.54-6.04,1.54s-4.17-.49-5.49-1.47c-1.32-.98-1.98-2.27-1.98-3.88,0-1.51.55-2.77,1.65-3.77,1.1-1,3.19-1.5,6.26-1.5h9.52v4.54c-.83,2-2.14,3.52-3.92,4.54Z"/>
        <path class="cls-1" d="M192.16,228.14c-2.42-1.22-5.21-1.83-8.39-1.83-3.42,0-6.43.68-9.05,2.05-1.74.91-3.19,2.08-4.36,3.49v-5.03h-8.72v39.11h9.08v-19.78c0-2.64.45-4.82,1.35-6.56.9-1.73,2.19-3.04,3.85-3.92,1.66-.88,3.56-1.32,5.71-1.32,2.98,0,5.27.85,6.88,2.56,1.61,1.71,2.42,4.3,2.42,7.76v21.24h9.16v-22.41c0-3.96-.72-7.2-2.16-9.74-1.44-2.54-3.37-4.42-5.79-5.64Z"/>
        <path class="cls-1" d="M223.54,235.65c1.81-1,3.83-1.5,6.08-1.5,1.95,0,3.77.45,5.46,1.35,1.68.9,3.11,2.26,4.29,4.06l6.96-4.1c-1.46-2.98-3.66-5.25-6.59-6.81-2.93-1.56-6.28-2.34-10.03-2.34-4.1,0-7.75.87-10.95,2.6-3.2,1.73-5.7,4.09-7.51,7.07-1.81,2.98-2.71,6.45-2.71,10.4s.9,7.36,2.71,10.36c1.81,3,4.31,5.37,7.51,7.1,3.2,1.73,6.85,2.6,10.95,2.6,3.76,0,7.1-.79,10.03-2.38,2.93-1.59,5.13-3.85,6.59-6.78l-6.96-4.1c-1.17,1.86-2.6,3.24-4.29,4.14-1.68.9-3.5,1.35-5.46,1.35-2.25,0-4.27-.5-6.08-1.5-1.81-1-3.22-2.43-4.25-4.28-1.03-1.85-1.54-4.03-1.54-6.52s.51-4.65,1.54-6.48,2.44-3.25,4.25-4.25Z"/>
        <path class="cls-1" d="M258.92,209.39c-1.71,0-3.11.54-4.21,1.61-1.1,1.07-1.65,2.34-1.65,3.81,0,1.56.55,2.88,1.65,3.96,1.1,1.07,2.5,1.61,4.21,1.61s3.17-.55,4.25-1.65c1.07-1.1,1.61-2.43,1.61-3.99s-.55-2.84-1.65-3.85c-1.1-1-2.5-1.5-4.21-1.5Z"/>
        <rect class="cls-1" x="254.38" y="226.82" width="9.08" height="39.11"/>
        <path class="cls-1" d="M290.41,226.31c-3.13,0-6.13.42-9.01,1.25-2.88.83-5.4,2.05-7.54,3.66l3.59,6.67c1.51-1.22,3.32-2.17,5.42-2.86,2.1-.68,4.22-1.03,6.37-1.03,3.32,0,5.8.74,7.43,2.23,1.64,1.49,2.45,3.58,2.45,6.26v.59h-10.18c-3.96,0-7.13.51-9.52,1.54-2.39,1.03-4.11,2.42-5.16,4.18-1.05,1.76-1.57,3.74-1.57,5.93s.6,4.26,1.79,6.04c1.2,1.78,2.89,3.17,5.09,4.17,2.2,1,4.76,1.5,7.69,1.5,3.52,0,6.4-.63,8.64-1.9,1.55-.87,2.76-2,3.66-3.36v4.75h8.64v-22.93c0-5.66-1.54-9.86-4.61-12.6-3.08-2.73-7.47-4.1-13.18-4.1ZM295.21,258.24c-1.78,1.03-3.8,1.54-6.04,1.54s-4.17-.49-5.49-1.47c-1.32-.98-1.98-2.27-1.98-3.88,0-1.51.55-2.77,1.65-3.77,1.1-1,3.19-1.5,6.26-1.5h9.52v4.54c-.83,2-2.14,3.52-3.92,4.54Z"/>
        <rect class="cls-1" x="320" y="211.58" width="9.08" height="54.35"/>
        <path class="cls-1" d="M119.15,193.26h-6.04v10.72c-.7.41-1.42.74-2.15.99-1.6.54-3.26.82-4.98.82-1.85,0-3.53-.3-5.05-.89-1.52-.59-2.84-1.44-3.96-2.52-1.12-1.09-2-2.38-2.62-3.89-.63-1.5-.94-3.13-.94-4.88s.31-3.42.94-4.9c.63-1.49,1.5-2.77,2.62-3.86,1.12-1.09,2.45-1.93,3.99-2.52,1.54-.59,3.23-.89,5.07-.89s3.61.32,5.17.97c1.57.64,3.03,1.64,4.38,3l4.06-3.96c-1.62-1.85-3.61-3.25-5.97-4.21-2.36-.96-4.99-1.44-7.9-1.44s-5.29.44-7.55,1.31c-2.26.87-4.24,2.12-5.94,3.74-1.7,1.62-3.01,3.5-3.94,5.64-.92,2.15-1.39,4.52-1.39,7.13s.46,4.98,1.39,7.13c.92,2.15,2.23,4.03,3.91,5.64,1.68,1.62,3.65,2.86,5.92,3.74,2.26.87,4.74,1.31,7.45,1.31,2.48,0,4.9-.37,7.28-1.11,2.38-.74,4.46-1.84,6.24-3.29v-13.76Z"/>
        <path class="cls-1" d="M133.26,198.17c0-2.77.69-4.83,2.08-6.19,1.39-1.35,3.27-2.03,5.64-2.03.2,0,.41,0,.64.02.23.02.46.04.69.07v-5.89c-2.48,0-4.57.47-6.29,1.41-1.27.7-2.27,1.63-3.02,2.78v-3.85h-5.89v26.44h6.14v-12.77Z"/>
        <path class="cls-1" d="M167.57,207.52v3.42h5.89v-26.44h-6.19v13.37c0,1.75-.3,3.22-.89,4.41-.59,1.19-1.44,2.08-2.52,2.67s-2.36.89-3.81.89c-1.95,0-3.47-.59-4.56-1.76-1.09-1.17-1.63-2.93-1.63-5.27v-14.31h-6.24v15.1c0,2.64.49,4.83,1.46,6.56.97,1.73,2.32,3.02,4.03,3.86,1.72.84,3.7,1.26,5.94,1.26,2.05,0,3.93-.46,5.64-1.39,1.15-.62,2.09-1.42,2.87-2.38Z"/>
        <path class="cls-1" d="M207.89,190.59c-1.17-2.05-2.76-3.63-4.78-4.75-2.01-1.12-4.31-1.68-6.88-1.68-2.21,0-4.21.49-5.99,1.46-1.06.58-1.95,1.35-2.72,2.29v-3.4h-5.89v36.04h6.14v-12.85c.75.87,1.6,1.59,2.57,2.13,1.75.97,3.71,1.46,5.89,1.46,2.57,0,4.87-.56,6.88-1.68,2.01-1.12,3.61-2.7,4.78-4.73,1.17-2.03,1.76-4.41,1.76-7.15s-.59-5.08-1.76-7.13ZM202.32,202.08c-.69,1.25-1.63,2.23-2.8,2.92-1.17.69-2.52,1.04-4.04,1.04s-2.77-.35-3.96-1.04c-1.19-.69-2.13-1.67-2.82-2.92-.69-1.25-1.04-2.71-1.04-4.36s.35-3.14,1.04-4.38c.69-1.24,1.63-2.19,2.82-2.87,1.19-.68,2.51-1.01,3.96-1.01s2.86.34,4.04,1.01c1.17.68,2.1,1.63,2.8,2.87.69,1.24,1.04,2.7,1.04,4.38s-.35,3.1-1.04,4.36Z"/>
        <path class="cls-1" d="M220.22,209.53c2.13,1.17,4.53,1.76,7.2,1.76s5.13-.59,7.28-1.76c2.15-1.17,3.82-2.77,5.03-4.8,1.2-2.03,1.81-4.36,1.81-7.01s-.6-5.02-1.81-7.03c-1.21-2.01-2.87-3.61-5-4.78-2.13-1.17-4.56-1.76-7.3-1.76s-5.12.59-7.23,1.76c-2.11,1.17-3.78,2.76-5,4.78-1.22,2.01-1.83,4.36-1.83,7.03s.61,4.93,1.83,6.98c1.22,2.05,2.9,3.66,5.02,4.83ZM220.64,193.34c.69-1.24,1.63-2.19,2.82-2.87,1.19-.68,2.52-1.01,4.01-1.01s2.82.34,4.01,1.01c1.19.68,2.12,1.63,2.8,2.87.68,1.24,1.02,2.7,1.02,4.38s-.34,3.11-1.02,4.38c-.68,1.27-1.61,2.25-2.8,2.92-1.19.68-2.54,1.02-4.06,1.02s-2.77-.34-3.96-1.02c-1.19-.68-2.13-1.65-2.82-2.92-.69-1.27-1.04-2.73-1.04-4.38s.35-3.14,1.04-4.38Z"/>
      </g>
    </g>
  </g>
</svg>