<?xml version="1.0" encoding="UTF-8"?>
<svg id="Layer_2" data-name="Layer 2" xmlns="http://www.w3.org/2000/svg" viewBox="0 0 272.18 157.68">
  <defs>
    <style>
      .cls-1 {
        fill: #017edd;
      }

      .cls-2 {
        fill: #00355d;
      }
    </style>
  </defs>
  <g id="Layer_1-2" data-name="Layer 1">
    <g>
      <path class="cls-2" d="M193.83,45.85c-7.57,0-14.55,2.48-20.2,6.66l-7.14,7.15-47.86,47.88-4.16,4.16c-8.67,9.26-21.01,15.04-34.7,15.04-26.27,0-47.56-21.29-47.56-47.55s21.29-47.56,47.56-47.56c8.53,0,16.54,2.25,23.46,6.18l22.24-22.24C112.38,5.79,96.14,0,78.54,0,35.17,0,0,35.16,0,78.54s35.17,78.54,78.54,78.54c16.22,0,31.29-4.91,43.81-13.34,5.15-3.47,9.86-7.53,14.04-12.08,0,0,0,0,0,0l30.75-30.75,47.75-47.74c-5.79-4.58-13.11-7.31-21.07-7.31Z"/>
      <path class="cls-1" d="M78.35,111.83c7.57,0,14.55-2.48,20.2-6.66l7.14-7.15,47.86-47.88,4.16-4.16c8.67-9.26,21.01-15.04,34.7-15.04,26.27,0,47.56,21.29,47.56,47.55s-21.29,47.56-47.56,47.56c-8.53,0-16.54-2.25-23.46-6.18l-22.24,22.24c13.09,9.77,29.33,15.56,46.93,15.56,43.38,0,78.54-35.16,78.54-78.54S237.01.6,193.63.6c-16.22,0-31.29,4.91-43.81,13.34-5.15,3.47-9.86,7.53-14.04,12.08,0,0,0,0,0,0l-30.75,30.75-47.75,47.74c5.79,4.58,13.11,7.31,21.07,7.31Z"/>
    </g>
  </g>
</svg>