<?xml version="1.0" encoding="UTF-8"?>
<svg id="Layer_2" data-name="Layer 2" xmlns="http://www.w3.org/2000/svg" viewBox="0 0 341.98 284.9">
  <defs>
    <style>
      .cls-1 {
        font-size: 73.24px;
      }

      .cls-1, .cls-2, .cls-3 {
        fill: #fff;
      }

      .cls-1, .cls-3 {
        font-family: MontserratRoman-SemiBold, Montserrat;
        font-variation-settings: 'wght' 600;
        font-weight: 600;
      }

      .cls-3 {
        font-size: 49.51px;
      }
    </style>
  </defs>
  <g id="Layer_1-2" data-name="Layer 1">
    <g>
      <g>
        <path class="cls-2" d="M228.73,45.85c-7.57,0-14.55,2.48-20.2,6.66l-7.14,7.15-47.86,47.88-4.16,4.16c-8.67,9.26-21.01,15.04-34.7,15.04-26.27,0-47.56-21.29-47.56-47.55s21.29-47.56,47.56-47.56c8.53,0,16.54,2.25,23.46,6.18l22.24-22.24C147.28,5.79,131.04,0,113.44,0,70.07,0,34.9,35.16,34.9,78.54s35.17,78.54,78.54,78.54c16.22,0,31.29-4.91,43.81-13.34,5.15-3.47,9.86-7.53,14.04-12.08,0,0,0,0,0,0l30.75-30.75,47.75-47.74c-5.79-4.58-13.11-7.31-21.07-7.31Z"/>
        <path class="cls-2" d="M113.25,111.83c7.57,0,14.55-2.48,20.2-6.66l7.14-7.15,47.86-47.88,4.16-4.16c8.67-9.26,21.01-15.04,34.7-15.04,26.27,0,47.56,21.29,47.56,47.55s-21.29,47.56-47.56,47.56c-8.53,0-16.54-2.25-23.46-6.18l-22.24,22.24c13.09,9.77,29.33,15.56,46.93,15.56,43.38,0,78.54-35.16,78.54-78.54S271.91.6,228.53.6c-16.22,0-31.29,4.91-43.81,13.34-5.15,3.47-9.86,7.53-14.04,12.08,0,0,0,0,0,0l-30.75,30.75-47.75,47.74c5.79,4.58,13.11,7.31,21.07,7.31Z"/>
      </g>
      <text class="cls-1" transform="translate(0 265.93)"><tspan x="0" y="0">Financial</tspan></text>
      <text class="cls-3" transform="translate(91.67 210.94)"><tspan x="0" y="0">Grupo</tspan></text>
    </g>
  </g>
</svg>